<svg xmlns="http://www.w3.org/2000/svg" height="40px" viewBox="0 0 960 960" width="40px" fill="#e3e3e3"><path d="M106.67-306.67V-653.33-306.67Zm636 66.67H140q-42 0-71-29t-29-71v-280q0-42 29-71t71-29h573q-22 12-39.33 28.67-17.34 16.66-30 38H140q-14.33 0-23.83 9.5-9.5 9.5-9.5 23.83v280q0 14.33 9.5 23.83 9.5 9.5 23.83 9.5h562.67q2 21 12.83 37.84Q726.33-252 742.67-240Zm83.5-61.17q11.16-11.16 11.16-26.83 0-15.67-11.16-26.83Q815-366 799.33-366q-15.66 0-26.83 11.17-11.17 11.16-11.17 26.83 0 15.67 11.17 26.83Q783.67-290 799.33-290q15.67 0 26.84-11.17Zm-52.84-112.16h52.34q0-13.67 1-23.67 1-10 5.33-18.33 4.67-9.67 12.5-18 7.83-8.34 18.5-19 21.67-20.34 33.5-42.34 11.83-22 11.83-45 0-41.33-31.16-69.16-31.17-27.84-75.84-27.84-38 0-68.66 21.34-30.67 21.33-41.34 56l47 19q7.34-20.67 24.17-33.34 16.83-12.66 38.83-12.66 22.34 0 38.5 14 16.17 14 16.17 34.66 0 15.67-9 29.84-9 14.16-25.67 29.16-15 13.67-24.16 24.17Q788-484 782.33-472q-5.33 12.67-7.16 27.17-1.84 14.5-1.84 31.5Z"/></svg>